<?xml version="1.0" standalone="no"?>
<!DOCTYPE svg PUBLIC "-//W3C//DTD SVG 20010904//EN"
 "http://www.w3.org/TR/2001/REC-SVG-20010904/DTD/svg10.dtd">
<svg version="1.0" xmlns="http://www.w3.org/2000/svg"
 width="1217.000000pt" height="664.000000pt" viewBox="0 0 1217.000000 664.000000"
 preserveAspectRatio="xMidYMid meet">

<g transform="translate(0.000000,664.000000) scale(0.100000,-0.100000)"
fill="#000000" stroke="none">
<path d="M5736 6294 c-124 -30 -231 -101 -303 -201 -85 -119 -123 -265 -122
-462 l0 -106 23 75 c53 177 151 302 290 370 107 52 221 75 336 66 364 -27 794
-273 1226 -701 551 -546 928 -1188 1019 -1734 25 -151 17 -356 -19 -466 -64
-198 -177 -313 -370 -376 l-81 -27 49 -7 c64 -10 197 1 266 21 214 62 352 234
391 485 16 105 5 359 -21 479 -111 513 -413 1074 -845 1570 -484 555 -1066
946 -1518 1020 -87 14 -251 11 -321 -6z"/>
<path d="M4690 5807 l-12 -85 -80 -12 c-88 -14 -87 -25 2 -35 31 -4 62 -10 68
-14 10 -6 31 -114 32 -160 0 -35 11 2 21 75 6 43 16 82 22 86 6 3 36 9 67 13
84 10 93 22 24 30 -99 13 -100 13 -113 101 -6 43 -13 79 -15 81 -2 2 -9 -34
-16 -80z"/>
<path d="M5785 5759 c-138 -21 -267 -112 -333 -236 -172 -324 8 -940 445
-1515 417 -549 988 -961 1462 -1054 114 -22 284 -16 360 14 390 152 410 673
53 1337 -70 130 -202 329 -304 458 -102 129 -423 450 -550 551 -276 217 -616
393 -845 436 -81 15 -223 20 -288 9z m316 -189 c105 -42 224 -139 311 -254
270 -357 103 -628 -242 -393 -274 187 -421 545 -265 647 40 27 128 27 196 0z
m905 -575 c62 -31 101 -61 180 -140 111 -110 161 -185 200 -301 29 -87 30
-135 5 -191 -27 -59 -61 -78 -138 -77 -53 0 -76 7 -150 43 -75 37 -103 58
-188 145 -108 111 -157 183 -192 285 -40 116 -27 201 38 255 30 26 38 28 100
24 53 -3 83 -12 145 -43z m-1003 -144 c219 -100 417 -365 417 -559 0 -109 -48
-162 -145 -162 -181 0 -442 229 -531 467 -35 92 -32 197 6 239 57 62 141 67
253 15z m694 -358 c76 -36 163 -158 163 -230 0 -20 -8 -41 -20 -53 -43 -43
-128 -12 -207 74 -57 62 -76 109 -71 171 5 64 52 78 135 38z m693 -385 c135
-40 313 -202 403 -368 67 -123 83 -221 47 -295 -26 -54 -64 -75 -137 -75 -237
0 -581 393 -549 627 15 111 100 151 236 111z m-698 -49 c173 -68 364 -270 428
-452 24 -68 26 -166 5 -211 -22 -47 -69 -71 -135 -69 -174 3 -401 193 -513
431 -39 83 -50 199 -23 251 37 71 134 91 238 50z"/>
<path d="M3950 5588 c0 -47 -13 -61 -67 -74 l-48 -10 52 -8 c54 -8 63 -18 63
-78 0 -16 5 -28 10 -28 6 0 10 17 10 38 0 51 8 59 65 68 39 5 45 9 30 15 -11
4 -32 8 -47 8 -31 1 -48 25 -48 70 0 17 -4 31 -10 31 -5 0 -10 -15 -10 -32z"/>
<path d="M4346 5350 c-16 -96 -31 -178 -35 -182 -4 -4 -79 -19 -166 -34 -88
-14 -167 -28 -175 -31 -8 -3 64 -19 160 -35 96 -15 177 -32 181 -36 4 -4 19
-83 34 -177 22 -145 35 -205 35 -169 0 20 57 345 61 348 2 3 83 18 179 34 195
33 196 30 -23 66 -81 13 -151 26 -154 30 -3 3 -19 80 -34 172 -15 91 -30 171
-32 177 -2 6 -16 -67 -31 -163z"/>
<path d="M5377 5468 c-62 -107 -86 -253 -68 -415 44 -393 273 -856 627 -1273
83 -98 307 -320 409 -406 285 -240 622 -425 888 -486 129 -30 286 -30 384 0
74 23 111 48 51 34 -18 -4 -94 -7 -168 -6 -110 1 -153 6 -230 26 -739 196
-1602 1076 -1846 1883 -54 176 -59 211 -59 395 1 156 3 181 23 229 12 30 20
57 18 59 -2 2 -15 -16 -29 -40z"/>
<path d="M5204 5292 c-103 -67 -162 -153 -200 -292 -26 -94 -24 -285 4 -409
12 -52 24 -96 26 -99 3 -2 4 61 4 139 -1 104 3 164 16 214 25 104 97 242 165
317 51 55 59 70 66 116 9 65 0 66 -81 14z"/>
<path d="M5216 5110 c-83 -110 -135 -246 -151 -395 -4 -33 -2 -123 4 -200 33
-417 35 -474 24 -557 -6 -46 -15 -93 -18 -105 -6 -18 0 -25 36 -44 124 -63
218 -75 267 -34 73 61 69 206 -22 685 -41 221 -65 386 -76 540 -6 80 -12 152
-13 160 -1 8 -24 -15 -51 -50z"/>
<path d="M4961 5038 c-86 -175 -78 -429 23 -728 19 -58 46 -130 60 -160 l25
-55 -5 75 c-10 126 -20 180 -57 305 -62 211 -70 438 -22 575 23 65 11 59 -24
-12z"/>
<path d="M3775 4920 c-18 -20 -18 -21 7 -48 13 -15 78 -88 143 -162 268 -304
612 -627 845 -794 204 -146 395 -234 490 -224 55 5 44 23 -22 35 -109 21 -335
147 -533 298 -271 206 -667 604 -861 864 -21 28 -41 51 -45 51 -3 0 -14 -9
-24 -20z"/>
<path d="M3503 4651 c-128 -125 -233 -234 -233 -242 0 -17 125 -174 256 -322
197 -222 478 -450 740 -599 184 -106 451 -206 499 -188 25 9 35 30 15 30 -25
0 -214 77 -327 133 -82 40 -123 66 -122 76 0 13 279 267 333 305 9 6 32 -4 72
-31 119 -81 315 -169 417 -188 29 -6 42 -3 58 11 20 18 19 18 -48 37 -150 41
-333 150 -568 337 -149 119 -568 533 -730 720 -59 69 -113 130 -119 137 -8 8
-69 -46 -243 -216z m365 -6 c66 -82 152 -185 191 -228 39 -42 71 -81 71 -86 0
-9 -383 -354 -398 -359 -27 -9 -382 406 -382 448 0 18 370 380 386 377 6 -1
66 -69 132 -152z m436 -482 c66 -64 163 -150 214 -191 50 -41 92 -77 92 -82 0
-7 -336 -313 -351 -318 -22 -9 -315 198 -423 299 l-59 56 168 149 c93 82 183
161 200 176 16 15 32 28 34 28 1 0 58 -52 125 -117z"/>
<path d="M3216 4371 c-18 -20 -18 -21 15 -63 184 -237 505 -545 744 -714 230
-163 510 -303 635 -318 67 -8 54 2 -51 40 -298 107 -629 327 -917 608 -128
126 -304 326 -387 440 l-20 28 -19 -21z"/>
<path d="M2929 4296 c22 -55 124 -248 175 -329 142 -226 383 -499 562 -640
213 -167 478 -300 678 -341 98 -21 294 -21 394 0 158 32 299 105 417 216 67
62 130 136 124 143 -3 2 -31 -13 -64 -34 -135 -86 -317 -146 -475 -158 -334
-23 -711 155 -1195 566 -55 47 -217 201 -360 343 -143 142 -261 258 -262 258
-1 0 2 -11 6 -24z"/>
<path d="M5541 4148 c-47 -36 -56 -40 -74 -29 -19 13 -20 11 -13 -54 8 -76 17
-98 89 -205 330 -491 793 -880 1212 -1019 154 -51 307 -65 410 -37 133 35 117
62 -28 48 -143 -14 -368 21 -374 58 -2 8 15 28 37 44 47 35 49 42 16 57 -22
10 -31 6 -84 -35 l-61 -46 -76 35 c-69 31 -327 193 -339 213 -7 12 4 25 67 71
31 24 57 47 57 52 0 5 -11 14 -24 21 -22 10 -32 5 -91 -42 -65 -51 -66 -52
-91 -35 -38 24 -334 318 -334 331 0 5 29 32 65 59 36 27 65 52 65 56 0 3 -8
13 -18 23 -18 15 -23 13 -87 -36 l-69 -51 -34 39 c-52 59 -179 241 -220 313
l-36 65 39 30 c89 71 87 68 67 93 l-17 22 -54 -41z"/>
<path d="M5456 3871 c-4 -38 -16 -72 -32 -96 l-25 -37 38 -55 c203 -296 550
-633 868 -845 132 -88 357 -202 475 -241 368 -121 653 -58 773 171 l36 69
-137 -2 c-118 -2 -143 -5 -179 -24 -231 -117 -599 -30 -982 233 -283 194 -601
524 -771 801 -24 39 -46 74 -50 78 -4 5 -10 -19 -14 -52z"/>
<path d="M5337 3692 c-10 -10 -17 -23 -17 -29 0 -14 111 -163 207 -276 384
-454 851 -783 1272 -894 135 -36 314 -38 418 -5 40 12 75 27 79 34 5 8 2 9
-12 3 -32 -14 -259 -18 -331 -5 -107 18 -308 89 -429 150 -389 199 -804 566
-1093 968 -29 39 -58 72 -65 72 -7 0 -20 -8 -29 -18z"/>
<path d="M5471 3135 c-11 -85 -43 -261 -49 -266 -4 -4 -59 -14 -122 -24 -63
-10 -118 -21 -123 -25 -4 -3 46 -15 112 -25 66 -10 125 -21 130 -25 6 -3 20
-64 31 -135 12 -72 23 -131 24 -132 1 -2 12 56 24 129 12 72 24 133 27 136 3
3 62 15 132 28 71 12 126 23 123 24 -3 1 -61 12 -130 24 l-125 21 -16 85 c-9
47 -21 110 -27 140 -5 30 -10 51 -11 45z"/>
<path d="M5787 2580 c-3 -8 -7 -24 -9 -35 -2 -13 -12 -21 -31 -23 -35 -4 -35
-20 1 -24 22 -2 28 -8 30 -35 2 -18 7 -33 12 -33 5 0 10 15 12 33 3 28 7 32
36 35 17 2 32 7 32 12 0 5 -15 10 -32 12 -29 3 -34 7 -39 38 -3 22 -8 29 -12
20z"/>
<path d="M5216 2475 c-16 -86 -14 -84 -54 -90 -65 -11 -69 -18 -14 -28 41 -8
53 -14 57 -31 2 -12 7 -39 11 -61 l8 -40 11 60 11 60 54 11 c56 11 54 15 -15
30 -39 9 -40 10 -50 69 l-11 60 -8 -40z"/>
<path d="M4548 1540 c-179 -32 -280 -199 -265 -438 6 -105 26 -172 68 -235 58
-88 162 -137 288 -137 170 0 273 68 333 219 19 48 22 75 22 191 0 117 -3 143
-23 193 -53 135 -150 204 -296 212 -44 2 -101 0 -127 -5z m172 -149 c23 -12
44 -36 60 -67 23 -45 25 -59 25 -184 -1 -106 -5 -143 -18 -170 -36 -75 -73
-100 -146 -100 -70 0 -112 26 -143 88 -21 42 -23 61 -23 182 0 125 2 139 25
184 30 58 75 86 140 86 25 0 61 -8 80 -19z"/>
<path d="M6577 1544 c-4 -4 -7 -27 -7 -51 0 -40 -2 -43 -27 -43 -87 0 -207
-58 -252 -121 -81 -112 -59 -309 44 -396 42 -37 121 -70 182 -78 l52 -7 3 -56
3 -57 83 -3 82 -3 0 60 0 59 53 7 c64 8 152 47 191 83 16 15 41 54 57 87 78
163 -3 357 -169 405 -20 6 -58 13 -84 17 l-47 6 -3 46 -3 46 -75 3 c-42 1 -79
0 -83 -4z m-7 -394 c0 -192 3 -187 -77 -151 -52 24 -72 54 -80 119 -14 120 39
196 140 201 16 1 17 -13 17 -169z m231 160 c19 -5 48 -24 64 -40 26 -27 30
-39 33 -103 5 -109 -35 -170 -121 -184 l-37 -6 0 172 c0 186 -3 179 61 161z"/>
<path d="M1700 1140 l0 -401 86 3 87 3 -2 193 c-1 114 2 192 7 192 5 0 63 -88
128 -195 l119 -195 98 0 c53 0 97 3 97 6 0 3 -57 93 -127 201 -69 108 -126
201 -126 207 0 6 52 90 116 187 65 96 117 181 117 187 0 19 -164 16 -183 -3
-8 -8 -64 -93 -123 -190 -60 -96 -113 -175 -117 -175 -5 0 -7 84 -6 188 l4
187 -88 3 -87 3 0 -401z"/>
<path d="M2587 1533 c-4 -3 -7 -25 -7 -48 0 -39 2 -42 45 -63 l45 -22 0 -263
0 -264 -42 -19 c-41 -18 -43 -21 -46 -66 l-3 -48 180 0 181 0 0 48 c0 47 -1
48 -45 70 l-45 22 0 260 0 261 44 18 c49 22 59 39 50 87 l-6 34 -172 0 c-95 0
-176 -3 -179 -7z"/>
<path d="M3290 1140 l0 -400 85 0 85 0 0 170 0 171 138 -3 137 -3 0 -165 0
-165 87 -3 c84 -3 88 -2 92 20 3 13 4 192 3 398 l-2 375 -90 0 -90 0 4 -123
c2 -67 0 -138 -3 -157 l-7 -36 -132 3 -132 3 -3 158 -3 157 -84 0 -85 0 0
-400z"/>
<path d="M5455 1363 c-31 -98 -88 -275 -126 -394 -38 -119 -69 -219 -69 -223
0 -3 43 -6 95 -6 l94 0 10 38 c5 20 16 62 23 92 l13 55 132 3 132 3 10 -38 c5
-21 16 -63 23 -93 l13 -55 94 -3 94 -3 -7 28 c-3 15 -59 195 -124 398 l-118
370 -116 3 -117 3 -56 -178z m185 19 c0 -14 40 -164 77 -294 5 -16 -4 -18 -86
-18 -50 0 -91 4 -91 8 0 4 15 62 34 128 18 65 37 138 41 162 6 40 25 50 25 14z"/>
<path d="M7377 1533 c-4 -3 -7 -25 -7 -48 0 -39 2 -43 41 -60 23 -11 44 -27
48 -36 3 -10 5 -130 3 -267 l-3 -248 -44 -22 c-43 -21 -45 -23 -45 -67 l0 -45
180 0 180 0 6 25 c11 44 -3 69 -51 93 l-45 22 0 259 0 260 45 20 c47 21 63 49
51 96 l-6 25 -174 0 c-95 0 -176 -3 -179 -7z"/>
<path d="M8087 1534 c-4 -4 -7 -184 -7 -401 l0 -393 480 0 480 0 -2 398 -3
397 -85 0 -85 0 -3 -327 -2 -328 -105 0 -105 0 -2 328 -3 327 -85 0 -85 0 -3
-327 -2 -328 -105 0 -105 0 -2 328 -3 327 -80 3 c-45 1 -84 0 -88 -4z"/>
<path d="M9582 1478 c-11 -35 -66 -209 -123 -388 -56 -179 -104 -331 -107
-338 -3 -10 17 -12 93 -10 l98 3 21 90 21 90 132 3 132 3 10 -38 c5 -21 16
-63 23 -93 l13 -55 93 -3 c65 -2 92 1 92 9 0 11 -115 379 -209 669 l-37 115
-116 3 -116 3 -20 -63z m148 -97 c0 -10 18 -82 40 -160 22 -78 40 -143 40
-146 0 -3 -41 -5 -91 -5 -82 0 -91 2 -87 18 66 248 84 312 91 312 4 0 7 -8 7
-19z"/>
</g>
</svg>
